<mxfile host="app.diagrams.net" modified="2020-05-22T21:37:03.822Z" agent="5.0 (Macintosh; Intel Mac OS X 10_15_4) AppleWebKit/537.36 (KHTML, like Gecko) Chrome/81.0.4044.138 Safari/537.36" etag="LiKCwv9ciBzl1gUKA6Qq" version="13.0.2" type="github">
  <diagram id="Hq4DuB4G5Q0XToz3wvH3" name="Page-1">
    <mxGraphModel dx="796" dy="562" grid="1" gridSize="10" guides="1" tooltips="1" connect="1" arrows="1" fold="1" page="1" pageScale="1" pageWidth="850" pageHeight="1100" math="0" shadow="0">
      <root>
        <mxCell id="0" />
        <mxCell id="1" parent="0" />
        <mxCell id="IHCtJjidZSzaSEiklruB-1" value="" style="shape=actor;whiteSpace=wrap;html=1;fillColor=#d5e8d4;strokeColor=#82b366;" vertex="1" parent="1">
          <mxGeometry x="70" y="160" width="40" height="60" as="geometry" />
        </mxCell>
        <mxCell id="IHCtJjidZSzaSEiklruB-2" value="" style="shape=actor;whiteSpace=wrap;html=1;fillColor=#f8cecc;strokeColor=#b85450;" vertex="1" parent="1">
          <mxGeometry x="90" y="180" width="40" height="60" as="geometry" />
        </mxCell>
        <mxCell id="IHCtJjidZSzaSEiklruB-3" value="" style="shape=actor;whiteSpace=wrap;html=1;fillColor=#fff2cc;strokeColor=#d6b656;" vertex="1" parent="1">
          <mxGeometry x="50" y="190" width="40" height="60" as="geometry" />
        </mxCell>
        <mxCell id="IHCtJjidZSzaSEiklruB-4" value="" style="shape=singleArrow;whiteSpace=wrap;html=1;fillColor=#000000;" vertex="1" parent="1">
          <mxGeometry x="150" y="195" width="60" height="30" as="geometry" />
        </mxCell>
        <mxCell id="IHCtJjidZSzaSEiklruB-5" value="&lt;b&gt;Dispatcher&lt;/b&gt;" style="shape=parallelogram;perimeter=parallelogramPerimeter;whiteSpace=wrap;html=1;fillColor=#FFFFFF;strokeWidth=4;" vertex="1" parent="1">
          <mxGeometry x="230" y="180" width="120" height="60" as="geometry" />
        </mxCell>
        <mxCell id="IHCtJjidZSzaSEiklruB-6" value="" style="shape=curlyBracket;whiteSpace=wrap;html=1;rounded=1;strokeWidth=4;fillColor=#FFFFFF;" vertex="1" parent="1">
          <mxGeometry x="370" y="135" width="30" height="150" as="geometry" />
        </mxCell>
        <mxCell id="IHCtJjidZSzaSEiklruB-7" value="" style="shape=actor;whiteSpace=wrap;html=1;fillColor=#dae8fc;strokeColor=#6c8ebf;" vertex="1" parent="1">
          <mxGeometry x="80" y="210" width="40" height="60" as="geometry" />
        </mxCell>
        <mxCell id="IHCtJjidZSzaSEiklruB-8" value="&lt;b&gt;API 1&lt;/b&gt;" style="rounded=1;whiteSpace=wrap;html=1;strokeWidth=4;fillColor=#FFFFFF;" vertex="1" parent="1">
          <mxGeometry x="420" y="110" width="90" height="50" as="geometry" />
        </mxCell>
        <mxCell id="IHCtJjidZSzaSEiklruB-9" value="&lt;b&gt;API 2&lt;/b&gt;" style="rounded=1;whiteSpace=wrap;html=1;strokeWidth=4;fillColor=#FFFFFF;" vertex="1" parent="1">
          <mxGeometry x="420" y="185" width="90" height="50" as="geometry" />
        </mxCell>
        <mxCell id="IHCtJjidZSzaSEiklruB-10" value="&lt;b&gt;API 3&lt;/b&gt;" style="rounded=1;whiteSpace=wrap;html=1;strokeWidth=4;fillColor=#FFFFFF;" vertex="1" parent="1">
          <mxGeometry x="420" y="260" width="90" height="50" as="geometry" />
        </mxCell>
        <mxCell id="IHCtJjidZSzaSEiklruB-11" value="" style="endArrow=classic;html=1;rounded=0;strokeWidth=4;" edge="1" parent="1">
          <mxGeometry width="50" height="50" relative="1" as="geometry">
            <mxPoint x="530" y="134.5" as="sourcePoint" />
            <mxPoint x="590" y="134.5" as="targetPoint" />
          </mxGeometry>
        </mxCell>
        <mxCell id="IHCtJjidZSzaSEiklruB-14" value="UserA&lt;br&gt;UserB&lt;br&gt;UserC&lt;br&gt;UserD" style="label;whiteSpace=wrap;html=1;image=img/clipart/Gear_128x128.png;strokeWidth=4;fillColor=#FFFFFF;" vertex="1" parent="1">
          <mxGeometry x="30" y="290" width="110" height="70" as="geometry" />
        </mxCell>
        <mxCell id="IHCtJjidZSzaSEiklruB-15" value="&lt;b&gt;Result 1&lt;/b&gt;" style="ellipse;whiteSpace=wrap;html=1;strokeWidth=4;fillColor=#FFFFFF;" vertex="1" parent="1">
          <mxGeometry x="610" y="102.5" width="100" height="65" as="geometry" />
        </mxCell>
        <mxCell id="IHCtJjidZSzaSEiklruB-16" value="" style="endArrow=classic;html=1;rounded=0;strokeWidth=4;" edge="1" parent="1">
          <mxGeometry width="50" height="50" relative="1" as="geometry">
            <mxPoint x="530" y="209.5" as="sourcePoint" />
            <mxPoint x="590" y="209.5" as="targetPoint" />
          </mxGeometry>
        </mxCell>
        <mxCell id="IHCtJjidZSzaSEiklruB-17" value="&lt;b&gt;Result 2&lt;/b&gt;" style="ellipse;whiteSpace=wrap;html=1;strokeWidth=4;fillColor=#FFFFFF;" vertex="1" parent="1">
          <mxGeometry x="610" y="177.5" width="100" height="65" as="geometry" />
        </mxCell>
        <mxCell id="IHCtJjidZSzaSEiklruB-20" value="" style="endArrow=classic;html=1;rounded=0;strokeWidth=4;" edge="1" parent="1">
          <mxGeometry width="50" height="50" relative="1" as="geometry">
            <mxPoint x="530" y="284.5" as="sourcePoint" />
            <mxPoint x="590" y="284.5" as="targetPoint" />
          </mxGeometry>
        </mxCell>
        <mxCell id="IHCtJjidZSzaSEiklruB-21" value="&lt;b&gt;Result 3&lt;/b&gt;" style="ellipse;whiteSpace=wrap;html=1;strokeWidth=4;fillColor=#FFFFFF;" vertex="1" parent="1">
          <mxGeometry x="610" y="252.5" width="100" height="65" as="geometry" />
        </mxCell>
        <mxCell id="IHCtJjidZSzaSEiklruB-22" value="" style="shape=datastore;whiteSpace=wrap;html=1;strokeWidth=4;fillColor=#FFFFFF;" vertex="1" parent="1">
          <mxGeometry x="335" y="360" width="90" height="100" as="geometry" />
        </mxCell>
        <mxCell id="IHCtJjidZSzaSEiklruB-23" value="&lt;span&gt;UserA&amp;nbsp; UserA_model1&amp;nbsp;&lt;br&gt;UserA&amp;nbsp; UserA_model2&lt;br&gt;UserA&amp;nbsp; UserA_model3&lt;br&gt;UserB&amp;nbsp; UserB_model1&lt;br&gt;UserB&amp;nbsp; UserB_model2&lt;br&gt;UserB&amp;nbsp; UserB_model3&lt;br&gt;&lt;/span&gt;UserC&amp;nbsp; UserC_model1&lt;br&gt;&lt;span&gt;...&lt;br&gt;&lt;/span&gt;" style="shape=document;whiteSpace=wrap;html=1;boundedLbl=1;strokeWidth=4;fillColor=#FFFFFF;align=left;horizontal=1;verticalAlign=top;labelPosition=center;verticalLabelPosition=middle;" vertex="1" parent="1">
          <mxGeometry x="160" y="340" width="150" height="160" as="geometry" />
        </mxCell>
      </root>
    </mxGraphModel>
  </diagram>
</mxfile>
